<svg width="112" height="46" viewBox="0 0 112 46" fill="none" xmlns="http://www.w3.org/2000/svg">
<path d="M112 0.5H0V45.5H112V0.5Z" fill="#ED1D24"/>
<path d="M94.7804 10.9866V4.09889H75.5815L72.4241 27.1095L69.2998 4.09901H62.3763L63.1519 10.239C62.3522 8.66606 59.5176 4.09901 53.2795 4.09901C53.2384 4.09632 46.3466 4.09901 46.3466 4.09901L46.32 37.6387L41.2737 4.09901L32.2063 4.09375L26.9857 38.8455L26.9884 4.09878H18.3103L15.1818 23.6189L12.1345 4.09901H3.45361V41.8799H10.2896V23.6696L13.3992 41.8794H17.0335L20.0994 23.6696V41.8794H33.2781L34.0778 36.0659H39.3837L40.1807 41.8794L53.119 41.8873H53.1295V41.8794H53.1376H53.1457V29.6157L54.7318 29.385L58.0155 41.8873H58.0236H64.6999H64.7078L64.7051 41.8794H64.7169H64.725L60.4158 27.2261C62.5996 25.6136 65.0653 21.5186 64.4091 17.6011V17.5986C64.4169 17.6516 68.4764 41.9036 68.4764 41.9036L76.4357 41.8794L81.8743 7.63417V41.8795H94.7808V35.0846H88.6544V26.4198H94.7808V19.5215H88.6544V10.9866H94.7804ZM34.8831 30.0747L36.7599 13.9227L38.7088 30.0747H34.8831ZM54.754 22.6167C54.2279 22.8714 53.6793 22.9987 53.1453 22.9987V10.8461C53.1546 10.8461 53.1654 10.8436 53.1786 10.8436C53.714 10.841 57.7055 11.0053 57.7055 16.856C57.7055 19.9166 56.348 21.845 54.754 22.6167ZM108.554 35.0793V41.8741H95.9639V4.09375H102.743V35.0793H108.554Z" fill="white"/>
</svg>
